HIERARCHY
ROOT Hips
{
	OFFSET 0.00000 93.02000 0.00000
	CHANNELS 6 Xposition Yposition Zposition Yrotation Xrotation Zrotation
	JOINT RightUpLeg
	{
		OFFSET -9.25000 -1.59000 0.00000
		CHANNELS 6 Xposition Yposition Zposition Yrotation Xrotation Zrotation
		JOINT RightLeg
		{
			OFFSET 0.00000 -41.87000 0.00000
			CHANNELS 6 Xposition Yposition Zposition Yrotation Xrotation Zrotation
			JOINT RightFoot
			{
				OFFSET 0.00000 -41.87000 0.00000
				CHANNELS 6 Xposition Yposition Zposition Yrotation Xrotation Zrotation
				End site
				{
					OFFSET 0.00000 -7.69000 17.50000
				}
			}
		}
	}
	JOINT LeftUpLeg
	{
		OFFSET 9.25000 -1.59000 0.00000
		CHANNELS 6 Xposition Yposition Zposition Yrotation Xrotation Zrotation
		JOINT LeftLeg
		{
			OFFSET 0.00000 -41.87000 0.00000
			CHANNELS 6 Xposition Yposition Zposition Yrotation Xrotation Zrotation
			JOINT LeftFoot
			{
				OFFSET 0.00000 -41.87000 0.00000
				CHANNELS 6 Xposition Yposition Zposition Yrotation Xrotation Zrotation
				End site
				{
					OFFSET 0.00000 -7.69000 17.50000
				}
			}
		}
	}
	JOINT Spine
	{
		OFFSET 0.00000 14.30700 0.00000
		CHANNELS 6 Xposition Yposition Zposition Yrotation Xrotation Zrotation
		JOINT Spine1
		{
			OFFSET 0.00000 9.71800 0.00000
			CHANNELS 6 Xposition Yposition Zposition Yrotation Xrotation Zrotation
			JOINT Spine2
			{
				OFFSET 0.00000 10.12000 0.00000
				CHANNELS 6 Xposition Yposition Zposition Yrotation Xrotation Zrotation
				JOINT Spine3
				{
					OFFSET 0.00000 9.71800 0.00000
					CHANNELS 6 Xposition Yposition Zposition Yrotation Xrotation Zrotation
					JOINT Neck
					{
						OFFSET 0.00000 10.38700 0.00000
						CHANNELS 6 Xposition Yposition Zposition Yrotation Xrotation Zrotation
						JOINT Head
						{
							OFFSET 0.00000 9.47000 0.00000
							CHANNELS 6 Xposition Yposition Zposition Yrotation Xrotation Zrotation
							End site
							{
								OFFSET 0.00000 15.95000 0.00000
							}
						}
					}
					JOINT RightShoulder
					{
						OFFSET -3.20000 6.92500 0.00000
						CHANNELS 6 Xposition Yposition Zposition Yrotation Xrotation Zrotation
						JOINT RightArm
						{
							OFFSET -12.80000 0.00000 0.00000
							CHANNELS 6 Xposition Yposition Zposition Yrotation Xrotation Zrotation
							JOINT RightForeArm
							{
								OFFSET -26.50000 0.00000 0.00000
								CHANNELS 6 Xposition Yposition Zposition Yrotation Xrotation Zrotation
								JOINT RightHand
								{
									OFFSET -26.00000 0.00000 0.00000
									CHANNELS 6 Xposition Yposition Zposition Yrotation Xrotation Zrotation
									JOINT RightHandThumb1
									{
										OFFSET -2.48900 0.19000 3.12100
										CHANNELS 6 Xposition Yposition Zposition Yrotation Xrotation Zrotation
										JOINT RightHandThumb2
										{
											OFFSET -3.68300 0.00000 0.00000
											CHANNELS 6 Xposition Yposition Zposition Yrotation Xrotation Zrotation
											JOINT RightHandThumb3
											{
												OFFSET -2.55800 0.00000 0.00000
												CHANNELS 6 Xposition Yposition Zposition Yrotation Xrotation Zrotation
												End site
												{
													OFFSET -2.19400 0.00000 0.00000
												}
											}
										}
									}
									JOINT RightInHandIndex
									{
										OFFSET -3.22400 0.50800 1.97800
										CHANNELS 6 Xposition Yposition Zposition Yrotation Xrotation Zrotation
										JOINT RightHandIndex1
										{
											OFFSET -5.21700 -0.09100 0.99900
											CHANNELS 6 Xposition Yposition Zposition Yrotation Xrotation Zrotation
											JOINT RightHandIndex2
											{
												OFFSET -3.61900 0.00000 0.00000
												CHANNELS 6 Xposition Yposition Zposition Yrotation Xrotation Zrotation
												JOINT RightHandIndex3
												{
													OFFSET -2.05200 0.00000 0.00000
													CHANNELS 6 Xposition Yposition Zposition Yrotation Xrotation Zrotation
													End site
													{
														OFFSET -1.80500 0.00000 0.00000
													}
												}
											}
										}
									}
									JOINT RightInHandMiddle
									{
										OFFSET -3.38200 0.51700 0.75700
										CHANNELS 6 Xposition Yposition Zposition Yrotation Xrotation Zrotation
										JOINT RightHandMiddle1
										{
											OFFSET -5.17400 -0.08400 0.31400
											CHANNELS 6 Xposition Yposition Zposition Yrotation Xrotation Zrotation
											JOINT RightHandMiddle2
											{
												OFFSET -3.94900 0.00000 0.00000
												CHANNELS 6 Xposition Yposition Zposition Yrotation Xrotation Zrotation
												JOINT RightHandMiddle3
												{
													OFFSET -2.47600 0.00000 0.00000
													CHANNELS 6 Xposition Yposition Zposition Yrotation Xrotation Zrotation
													End site
													{
														OFFSET -1.97500 0.00000 0.00000
													}
												}
											}
										}
									}
									JOINT RightInHandRing
									{
										OFFSET -3.36500 0.53800 -0.12900
										CHANNELS 6 Xposition Yposition Zposition Yrotation Xrotation Zrotation
										JOINT RightHandRing1
										{
											OFFSET -4.63500 -0.02200 -0.47900
											CHANNELS 6 Xposition Yposition Zposition Yrotation Xrotation Zrotation
											JOINT RightHandRing2
											{
												OFFSET -3.44200 0.00000 0.00000
												CHANNELS 6 Xposition Yposition Zposition Yrotation Xrotation Zrotation
												JOINT RightHandRing3
												{
													OFFSET -2.38800 0.00000 0.00000
													CHANNELS 6 Xposition Yposition Zposition Yrotation Xrotation Zrotation
													End site
													{
														OFFSET -1.85700 0.00000 0.00000
													}
												}
											}
										}
									}
									JOINT RightInHandPinky
									{
										OFFSET -3.16100 0.46900 -1.20200
										CHANNELS 6 Xposition Yposition Zposition Yrotation Xrotation Zrotation
										JOINT RightHandPinky1
										{
											OFFSET -4.14100 -0.02200 -1.09100
											CHANNELS 6 Xposition Yposition Zposition Yrotation Xrotation Zrotation
											JOINT RightHandPinky2
											{
												OFFSET -2.75700 0.00000 0.00000
												CHANNELS 6 Xposition Yposition Zposition Yrotation Xrotation Zrotation
												JOINT RightHandPinky3
												{
													OFFSET -1.74200 0.00000 0.00000
													CHANNELS 6 Xposition Yposition Zposition Yrotation Xrotation Zrotation
													End site
													{
														OFFSET -1.64500 0.00000 0.00000
													}
												}
											}
										}
									}
								}
							}
						}
					}
					JOINT LeftShoulder
					{
						OFFSET 3.20000 6.92500 0.00000
						CHANNELS 6 Xposition Yposition Zposition Yrotation Xrotation Zrotation
						JOINT LeftArm
						{
							OFFSET 12.80000 0.00000 0.00000
							CHANNELS 6 Xposition Yposition Zposition Yrotation Xrotation Zrotation
							JOINT LeftForeArm
							{
								OFFSET 26.50000 0.00000 0.00000
								CHANNELS 6 Xposition Yposition Zposition Yrotation Xrotation Zrotation
								JOINT LeftHand
								{
									OFFSET 26.00000 0.00000 0.00000
									CHANNELS 6 Xposition Yposition Zposition Yrotation Xrotation Zrotation
									JOINT LeftHandThumb1
									{
										OFFSET 2.48900 0.19000 3.12100
										CHANNELS 6 Xposition Yposition Zposition Yrotation Xrotation Zrotation
										JOINT LeftHandThumb2
										{
											OFFSET 3.68300 0.00000 0.00000
											CHANNELS 6 Xposition Yposition Zposition Yrotation Xrotation Zrotation
											JOINT LeftHandThumb3
											{
												OFFSET 2.55800 0.00000 0.00000
												CHANNELS 6 Xposition Yposition Zposition Yrotation Xrotation Zrotation
												End site
												{
													OFFSET 2.19400 0.00000 0.00000
												}
											}
										}
									}
									JOINT LeftInHandIndex
									{
										OFFSET 3.22400 0.50800 1.97800
										CHANNELS 6 Xposition Yposition Zposition Yrotation Xrotation Zrotation
										JOINT LeftHandIndex1
										{
											OFFSET 5.21700 -0.09100 0.99900
											CHANNELS 6 Xposition Yposition Zposition Yrotation Xrotation Zrotation
											JOINT LeftHandIndex2
											{
												OFFSET 3.61900 0.00000 0.00000
												CHANNELS 6 Xposition Yposition Zposition Yrotation Xrotation Zrotation
												JOINT LeftHandIndex3
												{
													OFFSET 2.05200 0.00000 0.00000
													CHANNELS 6 Xposition Yposition Zposition Yrotation Xrotation Zrotation
													End site
													{
														OFFSET 1.80500 0.00000 0.00000
													}
												}
											}
										}
									}
									JOINT LeftInHandMiddle
									{
										OFFSET 3.38200 0.51700 0.75700
										CHANNELS 6 Xposition Yposition Zposition Yrotation Xrotation Zrotation
										JOINT LeftHandMiddle1
										{
											OFFSET 5.17400 -0.08400 0.31400
											CHANNELS 6 Xposition Yposition Zposition Yrotation Xrotation Zrotation
											JOINT LeftHandMiddle2
											{
												OFFSET 3.94900 0.00000 0.00000
												CHANNELS 6 Xposition Yposition Zposition Yrotation Xrotation Zrotation
												JOINT LeftHandMiddle3
												{
													OFFSET 2.47600 0.00000 0.00000
													CHANNELS 6 Xposition Yposition Zposition Yrotation Xrotation Zrotation
													End site
													{
														OFFSET 1.97500 0.00000 0.00000
													}
												}
											}
										}
									}
									JOINT LeftInHandRing
									{
										OFFSET 3.36500 0.53800 -0.12900
										CHANNELS 6 Xposition Yposition Zposition Yrotation Xrotation Zrotation
										JOINT LeftHandRing1
										{
											OFFSET 4.63500 -0.02200 -0.47900
											CHANNELS 6 Xposition Yposition Zposition Yrotation Xrotation Zrotation
											JOINT LeftHandRing2
											{
												OFFSET 3.44200 0.00000 0.00000
												CHANNELS 6 Xposition Yposition Zposition Yrotation Xrotation Zrotation
												JOINT LeftHandRing3
												{
													OFFSET 2.38800 0.00000 0.00000
													CHANNELS 6 Xposition Yposition Zposition Yrotation Xrotation Zrotation
													End site
													{
														OFFSET 1.85700 0.00000 0.00000
													}
												}
											}
										}
									}
									JOINT LeftInHandPinky
									{
										OFFSET 3.16100 0.46900 -1.20200
										CHANNELS 6 Xposition Yposition Zposition Yrotation Xrotation Zrotation
										JOINT LeftHandPinky1
										{
											OFFSET 4.14100 -0.02200 -1.09100
											CHANNELS 6 Xposition Yposition Zposition Yrotation Xrotation Zrotation
											JOINT LeftHandPinky2
											{
												OFFSET 2.75700 0.00000 0.00000
												CHANNELS 6 Xposition Yposition Zposition Yrotation Xrotation Zrotation
												JOINT LeftHandPinky3
												{
													OFFSET 1.74200 0.00000 0.00000
													CHANNELS 6 Xposition Yposition Zposition Yrotation Xrotation Zrotation
													End site
													{
														OFFSET 1.64500 0.00000 0.00000
													}
												}
											}
										}
									}
								}
							}
						}
					}
				}
			}
		}
	}
}
MOTION
Frames: 4
Frame Time: 0.008401
-23.767342 94.333603 17.97727 -84.717453 -0.637142 -1.14674 -9.261573 -1.615438 -0.01807 -2.418635 3.654127 4.136595 -0.009439 -41.874973 0.005578 -9.087217 1.468431 3.124222 1.582148 -42.111603 1.763037 -42.310619 -7.284178 -1.031037 9.292395 -1.562211 0.129176 4.46626 -0.698495 7.956935 0.03915 -41.87151 0.039467 -36.520897 -1.329685 1.467398 -1.773207 -41.434788 -1.285181 21.85157 4.547131 -10.552088 -0.050425 14.305975 0.017949 -10.797812 1.736647 1.481817 -0.030595 9.715816 0.027556 -2.706594 0.512562 0.395832 -0.020269 10.119742 0.04634 -4.449384 0.96258 0.643801 -0.02625 9.717605 0.062658 0.993348 0.270459 -0.019319 -0.012289 10.387173 -0.035472 0.997026 0.265884 -0.020091 -0.025996 9.464615 -0.019545 18.218575 4.081014 0.245886 -3.239431 6.916975 -0.034293 28.034355 1.728033 -1.760179 -12.748746 -0.020966 -0.082705 -27.49157 -15.821016 73.261292 -26.520399 -0.003527 -0.015915 108.957039 10.829446 48.826244 -26.016878 -0.034921 0.019286 -5.593735 -2.929284 -1.35712 -2.489053 0.190105 3.120527 21.860001 -0.0 30.0 -3.682737 0.0 0.0 -10.0 -0.0 0.0 -2.558316 0.0 0.0 -10.0 -0.0 0.0 -3.223684 0.508421 1.978421 0.0 -0.0 0.0 -5.216842 -0.091368 0.999158 2.55 -0.0 20.0 -3.619368 0.0 0.0 0.0 -0.0 24.0 -2.052105 0.0 0.0 0.0 -0.0 20.0 -3.382106 0.517263 0.756737 0.0 -0.0 0.0 -5.174105 -0.084 0.313895 0.0 -0.0 20.0 -3.949473 0.0 0.0 0.0 -0.0 24.0 -2.475789 0.0 0.0 0.0 -0.0 20.0 -3.365158 0.537895 -0.128947 0.0 -0.0 0.0 -4.634737 -0.022105 -0.478947 -3.0 -0.0 20.0 -3.442379 0.0 0.0 0.0 -0.0 24.0 -2.388105 0.0 0.0 0.0 -0.0 20.0 -3.161053 0.469368 -1.201789 0.0 -0.0 0.0 -4.141052 -0.022105 -1.090526 -8.83 -0.0 20.0 -2.756526 0.0 0.0 0.0 -0.0 24.0 -1.741895 0.0 0.0 0.0 -0.0 20.0 3.173718 6.917993 0.02294 0.312326 0.732821 -5.025897 12.781077 -0.003974 0.05714 3.372616 -12.11096 -63.765594 26.437599 -0.029717 0.047774 -73.48336 -20.943708 -29.114862 25.990143 -0.128166 0.060383 -22.845739 10.123259 4.095824 2.489053 0.190105 3.120527 -21.860001 -0.0 -30.0 3.682737 0.0 0.0 10.0 -0.0 0.0 2.558316 0.0 0.0 10.0 -0.0 0.0 3.223684 0.508421 1.978421 0.0 -0.0 0.0 5.216842 -0.091368 0.999158 -2.55 -0.0 -20.0 3.619368 0.0 0.0 0.0 -0.0 -24.0 2.052105 0.0 0.0 0.0 -0.0 -20.0 3.382106 0.517263 0.756737 0.0 -0.0 0.0 5.174105 -0.084 0.313895 0.0 -0.0 -20.0 3.949473 0.0 0.0 0.0 -0.0 -24.0 2.475789 0.0 0.0 0.0 -0.0 -20.0 3.365158 0.537895 -0.128947 0.0 -0.0 0.0 4.634737 -0.022105 -0.478947 3.0 -0.0 -20.0 3.442379 0.0 0.0 0.0 -0.0 -24.0 2.388105 0.0 0.0 0.0 -0.0 -20.0 3.161053 0.469368 -1.201789 0.0 -0.0 0.0 4.141052 -0.022105 -1.090526 8.83 -0.0 -20.0 2.756526 0.0 0.0 0.0 -0.0 -24.0 1.741895 0.0 0.0 0.0 -0.0 -20.0
-23.76741 94.329842 17.986097 -84.717453 -0.637142 -1.14674 -9.269452 -1.614185 -0.016822 -2.418635 3.654127 4.136595 -0.019478 -41.875217 0.004143 -9.088749 1.469942 3.123893 1.586382 -42.109676 1.757284 -42.310703 -7.283202 -1.029675 9.28812 -1.564478 0.121667 4.468999 -0.698146 7.956073 0.032436 -41.871552 0.038263 -36.52523 -1.328457 1.467811 -1.760824 -41.429325 -1.27602 21.853275 4.545679 -10.551889 -0.046246 14.306022 0.020188 -10.798791 1.736522 1.480545 -0.028308 9.716028 0.026445 -2.706843 0.512521 0.395516 -0.019131 10.11973 0.043078 -4.449799 0.962481 0.643276 -0.024744 9.717635 0.058388 0.993333 0.270463 -0.019288 -0.010718 10.387218 -0.036059 0.997005 0.265888 -0.02006 -0.019248 9.464831 -0.023403 18.218306 4.080886 0.24644 -3.233054 6.923384 -0.026843 28.036102 1.727504 -1.758216 -12.752744 -0.013233 -0.07655 -27.492853 -15.822094 73.262451 -26.525511 0.006343 -0.012703 108.957016 10.826386 48.825367 -26.0168 -0.03098 0.011025 -5.597482 -2.927536 -1.352576 -2.489053 0.190105 3.120527 21.860001 -0.0 30.0 -3.682737 0.0 0.0 -10.0 -0.0 0.0 -2.558316 0.0 0.0 -10.0 -0.0 0.0 -3.223684 0.508421 1.978421 0.0 -0.0 0.0 -5.216842 -0.091368 0.999158 2.55 -0.0 20.0 -3.619368 0.0 0.0 0.0 -0.0 24.0 -2.052105 0.0 0.0 0.0 -0.0 20.0 -3.382106 0.517263 0.756737 0.0 -0.0 0.0 -5.174105 -0.084 0.313895 0.0 -0.0 20.0 -3.949473 0.0 0.0 0.0 -0.0 24.0 -2.475789 0.0 0.0 0.0 -0.0 20.0 -3.365158 0.537895 -0.128947 0.0 -0.0 0.0 -4.634737 -0.022105 -0.478947 -3.0 -0.0 20.0 -3.442379 0.0 0.0 0.0 -0.0 24.0 -2.388105 0.0 0.0 0.0 -0.0 20.0 -3.161053 0.469368 -1.201789 0.0 -0.0 0.0 -4.141052 -0.022105 -1.090526 -8.83 -0.0 20.0 -2.756526 0.0 0.0 0.0 -0.0 24.0 -1.741895 0.0 0.0 0.0 -0.0 20.0 3.174234 6.9148 0.014198 0.314052 0.733267 -5.023912 12.777571 -0.010307 0.042838 3.388924 -12.135043 -63.76685 26.440557 -0.020456 0.045217 -73.464264 -20.944044 -29.138498 25.989218 -0.105721 0.064912 -22.83952 10.125175 4.094003 2.489053 0.190105 3.120527 -21.860001 -0.0 -30.0 3.682737 0.0 0.0 10.0 -0.0 0.0 2.558316 0.0 0.0 10.0 -0.0 0.0 3.223684 0.508421 1.978421 0.0 -0.0 0.0 5.216842 -0.091368 0.999158 -2.55 -0.0 -20.0 3.619368 0.0 0.0 0.0 -0.0 -24.0 2.052105 0.0 0.0 0.0 -0.0 -20.0 3.382106 0.517263 0.756737 0.0 -0.0 0.0 5.174105 -0.084 0.313895 0.0 -0.0 -20.0 3.949473 0.0 0.0 0.0 -0.0 -24.0 2.475789 0.0 0.0 0.0 -0.0 -20.0 3.365158 0.537895 -0.128947 0.0 -0.0 0.0 4.634737 -0.022105 -0.478947 3.0 -0.0 -20.0 3.442379 0.0 0.0 0.0 -0.0 -24.0 2.388105 0.0 0.0 0.0 -0.0 -20.0 3.161053 0.469368 -1.201789 0.0 -0.0 0.0 4.141052 -0.022105 -1.090526 8.83 -0.0 -20.0 2.756526 0.0 0.0 0.0 -0.0 -24.0 1.741895 0.0 0.0 0.0 -0.0 -20.0
-23.769232 94.328079 17.996319 -84.674408 -0.618535 -1.173391 -9.271913 -1.616928 -0.01944 -2.478653 3.64496 4.150232 -0.020761 -41.875336 0.000878 -9.10013 1.455456 3.126257 1.593972 -42.109535 1.745322 -42.244144 -7.272582 -1.037371 9.290262 -1.562084 0.127397 4.458212 -0.697087 7.959849 0.037954 -41.871742 0.037757 -36.609081 -1.359117 1.494078 -1.733644 -41.413296 -1.267786 21.90395 4.620072 -10.579145 -0.050129 14.306026 0.017694 -10.77822 1.718811 1.493858 -0.029403 9.715963 0.025568 -2.701675 0.507375 0.39852 -0.01996 10.119723 0.042319 -4.441511 0.953383 0.648375 -0.024933 9.717626 0.057483 0.987267 0.266788 -0.020883 -0.010796 10.387496 -0.033186 0.990815 0.262331 -0.021641 -0.022081 9.465168 -0.017853 18.099106 4.040576 0.207335 -3.233597 6.921914 -0.028452 28.033129 1.734393 -1.777841 -12.752265 -0.014692 -0.072281 -27.633102 -15.776009 73.268936 -26.519901 -0.001343 -0.013409 108.946083 10.805969 48.804432 -26.017536 -0.042785 0.028232 -5.607431 -2.92552 -1.354008 -2.489053 0.190105 3.120527 21.860001 -0.0 30.0 -3.682737 0.0 0.0 -10.0 -0.0 0.0 -2.558316 0.0 0.0 -10.0 -0.0 0.0 -3.223684 0.508421 1.978421 0.0 -0.0 0.0 -5.216842 -0.091368 0.999158 2.55 -0.0 20.0 -3.619368 0.0 0.0 0.0 -0.0 24.0 -2.052105 0.0 0.0 0.0 -0.0 20.0 -3.382106 0.517263 0.756737 0.0 -0.0 0.0 -5.174105 -0.084 0.313895 0.0 -0.0 20.0 -3.949473 0.0 0.0 0.0 -0.0 24.0 -2.475789 0.0 0.0 0.0 -0.0 20.0 -3.365158 0.537895 -0.128947 0.0 -0.0 0.0 -4.634737 -0.022105 -0.478947 -3.0 -0.0 20.0 -3.442379 0.0 0.0 0.0 -0.0 24.0 -2.388105 0.0 0.0 0.0 -0.0 20.0 -3.161053 0.469368 -1.201789 0.0 -0.0 0.0 -4.141052 -0.022105 -1.090526 -8.83 -0.0 20.0 -2.756526 0.0 0.0 0.0 -0.0 24.0 -1.741895 0.0 0.0 0.0 -0.0 20.0 3.17442 6.915968 0.01473 0.301788 0.725734 -5.042421 12.777988 -0.007682 0.048883 3.426853 -12.100945 -63.766666 26.437172 -0.025693 0.047621 -73.483253 -20.950924 -29.132488 25.991089 -0.118708 0.061761 -22.849695 10.142106 4.095817 2.489053 0.190105 3.120527 -21.860001 -0.0 -30.0 3.682737 0.0 0.0 10.0 -0.0 0.0 2.558316 0.0 0.0 10.0 -0.0 0.0 3.223684 0.508421 1.978421 0.0 -0.0 0.0 5.216842 -0.091368 0.999158 -2.55 -0.0 -20.0 3.619368 0.0 0.0 0.0 -0.0 -24.0 2.052105 0.0 0.0 0.0 -0.0 -20.0 3.382106 0.517263 0.756737 0.0 -0.0 0.0 5.174105 -0.084 0.313895 0.0 -0.0 -20.0 3.949473 0.0 0.0 0.0 -0.0 -24.0 2.475789 0.0 0.0 0.0 -0.0 -20.0 3.365158 0.537895 -0.128947 0.0 -0.0 0.0 4.634737 -0.022105 -0.478947 3.0 -0.0 -20.0 3.442379 0.0 0.0 0.0 -0.0 -24.0 2.388105 0.0 0.0 0.0 -0.0 -20.0 3.161053 0.469368 -1.201789 0.0 -0.0 0.0 4.141052 -0.022105 -1.090526 8.83 -0.0 -20.0 2.756526 0.0 0.0 0.0 -0.0 -24.0 1.741895 0.0 0.0 0.0 -0.0 -20.0
-23.771399 94.326149 18.006622 -84.653725 -0.602557 -1.188282 -9.271171 -1.617513 -0.018989 -2.457517 3.633336 4.148238 -0.02215 -41.875496 0.001699 -9.127276 1.453495 3.144862 1.595742 -42.108879 1.739219 -42.261177 -7.27253 -1.035565 9.294679 -1.561078 0.130492 4.459836 -0.68766 7.944616 0.046401 -41.872093 0.038382 -36.615337 -1.399397 1.528582 -1.715863 -41.408566 -1.274531 21.891586 4.648195 -10.562829 -0.05122 14.30601 0.016252 -10.753326 1.694425 1.488469 -0.031462 9.715692 0.025771 -2.695464 0.50011 0.396758 -0.022962 10.119758 0.043727 -4.431751 0.939924 0.64565 -0.027839 9.717669 0.059176 0.980228 0.263113 -0.020975 -0.014291 10.387976 -0.0286 0.983654 0.258753 -0.021713 -0.026979 9.465467 -0.011462 17.963581 3.992082 0.19436 -3.235477 6.922088 -0.029105 28.041342 1.733719 -1.755251 -12.752306 -0.014586 -0.072828 -27.740683 -15.739995 73.257179 -26.516518 -0.003311 -0.013797 108.940613 10.802667 48.79327 -26.017206 -0.042468 0.030018 -5.56821 -2.971261 -1.315056 -2.489053 0.190105 3.120527 21.860001 -0.0 30.0 -3.682737 0.0 0.0 -10.0 -0.0 0.0 -2.558316 0.0 0.0 -10.0 -0.0 0.0 -3.223684 0.508421 1.978421 0.0 -0.0 0.0 -5.216842 -0.091368 0.999158 2.55 -0.0 20.0 -3.619368 0.0 0.0 0.0 -0.0 24.0 -2.052105 0.0 0.0 0.0 -0.0 20.0 -3.382106 0.517263 0.756737 0.0 -0.0 0.0 -5.174105 -0.084 0.313895 0.0 -0.0 20.0 -3.949473 0.0 0.0 0.0 -0.0 24.0 -2.475789 0.0 0.0 0.0 -0.0 20.0 -3.365158 0.537895 -0.128947 0.0 -0.0 0.0 -4.634737 -0.022105 -0.478947 -3.0 -0.0 20.0 -3.442379 0.0 0.0 0.0 -0.0 24.0 -2.388105 0.0 0.0 0.0 -0.0 20.0 -3.161053 0.469368 -1.201789 0.0 -0.0 0.0 -4.141052 -0.022105 -1.090526 -8.83 -0.0 20.0 -2.756526 0.0 0.0 0.0 -0.0 24.0 -1.741895 0.0 0.0 0.0 -0.0 20.0 3.173259 6.91699 0.017609 0.312586 0.744841 -5.043922 12.780033 -0.005096 0.053798 3.476241 -12.09423 -63.780506 26.435759 -0.028196 0.048497 -73.500168 -20.939383 -29.150919 25.991598 -0.126986 0.059968 -22.834818 10.132864 4.08831 2.489053 0.190105 3.120527 -21.860001 -0.0 -30.0 3.682737 0.0 0.0 10.0 -0.0 0.0 2.558316 0.0 0.0 10.0 -0.0 0.0 3.223684 0.508421 1.978421 0.0 -0.0 0.0 5.216842 -0.091368 0.999158 -2.55 -0.0 -20.0 3.619368 0.0 0.0 0.0 -0.0 -24.0 2.052105 0.0 0.0 0.0 -0.0 -20.0 3.382106 0.517263 0.756737 0.0 -0.0 0.0 5.174105 -0.084 0.313895 0.0 -0.0 -20.0 3.949473 0.0 0.0 0.0 -0.0 -24.0 2.475789 0.0 0.0 0.0 -0.0 -20.0 3.365158 0.537895 -0.128947 0.0 -0.0 0.0 4.634737 -0.022105 -0.478947 3.0 -0.0 -20.0 3.442379 0.0 0.0 0.0 -0.0 -24.0 2.388105 0.0 0.0 0.0 -0.0 -20.0 3.161053 0.469368 -1.201789 0.0 -0.0 0.0 4.141052 -0.022105 -1.090526 8.83 -0.0 -20.0 2.756526 0.0 0.0 0.0 -0.0 -24.0 1.741895 0.0 0.0 0.0 -0.0 -20.0
